<svg xmlns="http://www.w3.org/2000/svg" viewBox="0 0 90 100" style="enable-background:new 0 0 90 100" xml:space="preserve"><path d="M90 70 54.6 57.12a3.979 3.979 0 0 1-2.49-2.71l-.6-2.19c-.62-2.27.85-4.58 3.16-4.99L90 41v29zM40.96 56.63 38.6 54a4.007 4.007 0 0 0-4.97-.79L8.1 67.94l4.46 25.28 9.96.87L41.46 61.3a4 4 0 0 0-.5-4.67zM35.91 27.5a3.968 3.968 0 0 0-3.4-2.66L0 22l7.05 39.97 32.54-18.79c.83-.48 1.2-1.48.88-2.38-.2-.55-.63-.99-1.18-1.19a6.502 6.502 0 0 1-3.63-8.97c.48-.97.6-2.1.25-3.14M90 0 41.73 22.51c-1.03.48-1.5 1.67-1.08 2.73l.21.52c.29.73.96 1.2 1.73 1.34 2.03.35 3.87 1.65 4.81 3.66a6.5 6.5 0 0 1-.91 6.92c-.38.45-.49 1.07-.27 1.61.32.8 1.22 1.21 2.03.91L90 25V0zM56.12 65.28c-3.85-2.7-9.19-1.51-11.53 2.57L29.18 94.68 90 100V89L56.12 65.28z" style="fill:#00802f"/></svg>