<svg id="Logo" xmlns="http://www.w3.org/2000/svg" viewBox="0 0 496 103"><defs><style>.cls-1{fill:#00802f;}</style></defs><path class="cls-1" d="M90,70,54.6,57.12a4,4,0,0,1-2.49-2.71l-.6-2.19a4,4,0,0,1,3.17-5L90,41ZM41,56.63,38.6,54a4,4,0,0,0-5-.79L8.1,67.94l4.46,25.28,10,.88L41.46,61.3A4,4,0,0,0,41,56.63ZM35.91,27.5a4,4,0,0,0-3.41-2.66L0,22,7.05,62,39.59,43.18a2,2,0,0,0,.88-2.37,1.93,1.93,0,0,0-1.18-1.19,6.5,6.5,0,0,1-3.63-9,4.16,4.16,0,0,0,.25-3.15M90,0,41.73,22.51a2.13,2.13,0,0,0-1.08,2.72l.2.53a2.21,2.21,0,0,0,1.74,1.33,6.5,6.5,0,0,1,3.89,10.58,1.64,1.64,0,0,0-.27,1.62,1.6,1.6,0,0,0,2,.91L90,25ZM56.12,65.28a8,8,0,0,0-11.53,2.57L29.18,94.68,90,100V89Z"/><path d="M198,72.86c-5.45,0-9.24,4-9.24,10,0,5.45,3.43,10.51,9.59,10.51a12.85,12.85,0,0,0,7.87-2.33V87.28a12.52,12.52,0,0,1-6.9,2.38c-3.78,0-6-2-6.64-5.94h13.9C206.55,76.42,203.2,72.86,198,72.86Zm-5.23,8.26c.52-3.12,2.33-4.88,5.32-4.88,2.77,0,4.48,1.89,4.62,4.88Zm28.12-8.26a6.51,6.51,0,0,1,4.32,1.93l-2.08,3.38a6,6,0,0,0-3.25-1.58c-2.68,0-4.8,2.69-4.8,6.07V93h-3.91V73.25h3.91v4.53h.09C217.12,74.31,219,72.86,220.86,72.86Zm18.75,14.73c0,3.48-2.77,5.81-6.51,5.81a13.79,13.79,0,0,1-6.86-1.8V87.37c2.55,1.76,4.88,2.6,6.46,2.6s2.91-.84,2.91-2.25c0-2.73-9.24-4.17-9.24-9.5,0-3.34,2.55-5.36,6.51-5.36a12.26,12.26,0,0,1,5.81,1.62v3.87A11.07,11.07,0,0,0,233,76.29c-1.58,0-2.6.74-2.6,1.8,0,.88,1.32,1.93,4.8,4C238.42,84.2,239.61,85.57,239.61,87.59ZM244,73.25h3.91V93H244Zm4.31-6A2.33,2.33,0,1,1,246,64.94,2.34,2.34,0,0,1,248.32,67.27Zm-86.11,6h3.92V93h-3.92ZM131.51,63h4.31V81.21c0,7.35-4.4,12.19-13.33,12.19-6.33,0-12.49-3.57-12.49-11.75V63h4.31V80.73c0,3.39.44,4.79,1.8,6.16a8.78,8.78,0,0,0,6.47,2.55,9.84,9.84,0,0,0,7-2.42c1.54-1.54,1.89-3.74,1.89-6.55Zm52.16,10.25h4.18L179.14,93.4h-1.31L168.9,73.25h4.26l5.33,12.14Zm-26.56,7.57V93h-3.92V80.77c0-2.9-1.49-4.79-3.87-4.79-1.71,0-3.08.79-4.92,2.86V93h-3.92V73.25h3.92v2.59h.08a7.64,7.64,0,0,1,5.9-3C154.12,72.86,157.11,75.41,157.11,80.82Zm117.07,8-7.65-15.53H271l5.32,11.13,5.11-11.13h4.4L271.86,103h-4.35ZM166.52,67.27a2.33,2.33,0,1,1-2.33-2.33A2.34,2.34,0,0,1,166.52,67.27Zm94.56,26.12c-4.27,0-6.43-2.63-6.43-6.2V76.77h-3.43v-.44l7.35-7.17v4.09h6.24v3.52h-6.24V86.89a2.72,2.72,0,0,0,2.81,3,8.63,8.63,0,0,0,4.45-1.45v3.65A11.89,11.89,0,0,1,261.08,93.39ZM440.68,63h3.92V93h-3.92Zm-5.94,26.53V79.37c0-4.49-3.16-6.51-7.17-6.51A8.07,8.07,0,0,0,421,75.54V79.8a8.18,8.18,0,0,1,6.25-3.25c2.37,0,3.56,1,3.56,3.47v1.06l-3.48,1.23c-3.16,1.15-6.72,2.34-6.72,6.25a4.76,4.76,0,0,0,4.83,4.84,8.44,8.44,0,0,0,5.32-2c.36,1.41,1.28,2,3,2,1.23,0,2-.35,3.78-1.54V89.48a4.7,4.7,0,0,1-2.07,1.06C435,90.54,434.74,90.27,434.74,89.53ZM430.83,89a5,5,0,0,1-3.43,1.62,2.69,2.69,0,0,1-2.82-2.77c0-2.33,2.9-3.47,6.25-4.61ZM496,80.82V93h-3.91V80.77c0-2.9-1.5-4.79-3.87-4.79-1.72,0-3.08.79-4.93,2.86V93h-3.92V73.25h3.92v2.59h.09a7.61,7.61,0,0,1,5.89-3C493,72.86,496,75.41,496,80.82Zm-29.19-8c-5.46,0-9.24,4-9.24,10,0,5.45,3.43,10.51,9.59,10.51A12.85,12.85,0,0,0,475,91.07V87.28a12.55,12.55,0,0,1-6.9,2.38c-3.79,0-6-2-6.64-5.94h13.9C475.39,76.42,472,72.86,466.81,72.86Zm-5.24,8.26c.53-3.12,2.33-4.88,5.32-4.88,2.78,0,4.49,1.89,4.63,4.88Zm-55.33-2.9h10.07V90.93a26.25,26.25,0,0,1-11.43,2.47c-9.2,0-16-6.42-16-15.22s6.95-15.57,16.1-15.57c3.52,0,6,.57,10.69,2.55v4.35a22.41,22.41,0,0,0-10.78-2.94A11.34,11.34,0,0,0,393.35,78c0,6.69,5,11.4,12.14,11.4A21.1,21.1,0,0,0,412,88.25V82.09h-5.76ZM449.87,63h3.92V93h-3.92Zm-118,0v3.83a4,4,0,0,0-1.76-.35c-3.17,0-4.18,1.84-4.18,4.88v1.89h3.56v3.52h-3.56V93H322V76.77h-2.77V73.25H322V71.8c0-3.87.93-5.72,2.51-7.3S328.43,62,331.86,63Zm52.65,27.76a2.64,2.64,0,1,1-2.64-2.64A2.65,2.65,0,0,1,384.51,90.76ZM306.56,72.85a10.27,10.27,0,1,0,0,20.54c6.34,0,10.7-4.22,10.7-10.46C317.26,77.08,312.77,72.85,306.56,72.85Zm0,17c-3.78,0-6.38-2.77-6.38-6.95a6.27,6.27,0,0,1,6.38-6.56,6.44,6.44,0,0,1,6.73,6.6C313.25,87.24,310.65,89.88,306.52,89.88Zm65.85,0a8.47,8.47,0,0,0,4.45-1.46v3.66a11.75,11.75,0,0,1-4.75,1.32c-4.27,0-6.43-2.64-6.43-6.21V76.77h-3.43v-.44l7.35-7.17v4.09h6.24v3.52h-6.24V86.89A2.72,2.72,0,0,0,372.37,89.88ZM360.8,85.26a8,8,0,0,1-8.4,8.14,13.2,13.2,0,0,1-8.4-2.78V85.17c2.2,2.82,5,4.36,7.92,4.36,3.34,0,4.88-2.11,4.88-3.78,0-6.21-13-6.91-13-15.14,0-4.88,3.61-8,9.11-8a12,12,0,0,1,6.69,2.11V69.6a10.08,10.08,0,0,0-7-3.12c-2.77,0-4.75,1.45-4.75,3.56C347.83,75.8,360.8,75.71,360.8,85.26Z"/></svg>