<?xml version="1.0" encoding="utf-8"?>
<!-- Generator: Adobe Illustrator 26.0.1, SVG Export Plug-In . SVG Version: 6.00 Build 0)  -->
<svg version="1.1" id="Logo" xmlns="http://www.w3.org/2000/svg" xmlns:xlink="http://www.w3.org/1999/xlink" x="0px" y="0px"
	 viewBox="0 0 90 100" style="enable-background:new 0 0 90 100;" xml:space="preserve">
<style type="text/css">
	.st0{fill:#00802F;}
</style>
<g>
	<path class="st0" d="M90,70L54.6,57.12c-1.22-0.44-2.15-1.45-2.49-2.71l-0.6-2.19c-0.62-2.27,0.85-4.58,3.16-4.99L90,41V70z
		 M40.96,56.63L38.6,54c-1.26-1.4-3.34-1.73-4.97-0.79L8.1,67.94l4.46,25.28l9.96,0.87L41.46,61.3
		C42.32,59.8,42.12,57.91,40.96,56.63z M35.91,27.5c-0.51-1.48-1.84-2.52-3.4-2.66L0,22l7.05,39.97l32.54-18.79
		c0.83-0.48,1.2-1.48,0.88-2.38c-0.2-0.55-0.63-0.99-1.18-1.19c-2.5-0.9-4.29-3.3-4.29-6.12c0-1.02,0.24-1.99,0.66-2.85
		C36.14,29.67,36.26,28.54,35.91,27.5 M90,0L41.73,22.51c-1.03,0.48-1.5,1.67-1.08,2.73l0.21,0.52c0.29,0.73,0.96,1.2,1.73,1.34
		c2.03,0.35,3.87,1.65,4.81,3.66c1.1,2.36,0.66,5.04-0.91,6.92c-0.38,0.45-0.49,1.07-0.27,1.61c0.32,0.8,1.22,1.21,2.03,0.91L90,25
		V0z M56.12,65.28c-3.85-2.7-9.19-1.51-11.53,2.57L29.18,94.68L90,100V89L56.12,65.28z"/>
</g>
</svg>
